<?xml version="1.0" standalone="no"?>
<svg xmlns="http://www.w3.org/2000/svg" viewBox="0 0 105.144 28.396" width="105.144" height="28.396"><g fill="#ff6a00" color="#ff6a00" transform="translate(0, 0) scale(0.6041667)"><svg width="48.0" height="47.0" x="0.0" y="0.0" viewBox="0 0 48 47"><path fill="currentColor" fill-rule="evenodd" d="M32.083 0l-.46.265-2.644 1.527-13.062 7.542L3.854 30.228.267 36.442l-.267.46 2.117 1.222 13.925 8.042.123.07H48V27.57l-.071-.124L34.953 4.97 32.083 0zM25.04 5.292l6.654-3.841 6.547 11.34-13.2-7.5zm-7.67 4.43l6.604-3.814 15.317 8.703 6.725 11.65-28.647-16.54zm-.531.92l29.566 17.07-29.566 17.07v-34.14zM9.171 40.97l-.123-17.615 6.728-11.65v33.078L9.17 40.97zm-7.72-4.457l6.547-11.338.107 15.18-6.654-3.842zm45.487-7.88v7.627l-15.194 8.912H18.29l28.648-16.54zm0 8.858v7.681H33.842l13.096-7.681zM23.567 22.294l9.384 5.42-9.384 5.417V22.294zm1.06 1.84v7.156l6.198-3.577-6.198-3.578z"></path></svg></g><line x1="41" y1="1" x2="41" y2="27.396" stroke="#002c83" stroke-linecap="round"></line><path fill="#002c83" fill-rule="nonzero" d="M2.21 19.61L0 19.61L0.36 0.17L3.02 0.17L6.46 15.94L9.91 0.17L12.55 0.17L12.91 19.61L10.73 19.61L10.51 5.50L7.22 19.61L5.69 19.61L2.42 5.50L2.21 19.61ZM20.33 19.61L15.89 19.61L15.89 0.17L20.11 0.17Q22.27 0.17 23.53 0.83Q24.79 1.49 25.33 2.81Q25.87 4.13 25.87 6.10L25.87 6.10L25.87 13.25Q25.87 15.31 25.33 16.73Q24.79 18.14 23.58 18.88Q22.37 19.61 20.33 19.61L20.33 19.61ZM18.60 2.18L18.60 17.66L20.14 17.66Q21.62 17.66 22.25 17.09Q22.87 16.51 23.00 15.41Q23.14 14.30 23.14 12.74L23.14 12.74L23.14 6.43Q23.14 4.92 22.94 3.98Q22.75 3.05 22.10 2.62Q21.46 2.18 20.06 2.18L20.06 2.18L18.60 2.18ZM30.70 19.61L28.49 19.61L28.85 0.17L31.51 0.17L34.94 15.94L38.40 0.17L41.04 0.17L41.40 19.61L39.22 19.61L39 5.50L35.71 19.61L34.18 19.61L30.91 5.50L30.70 19.61ZM49.25 19.82L49.25 19.82Q47.18 19.82 46.04 18.96Q44.90 18.10 44.46 16.63Q44.02 15.17 44.02 13.37L44.02 13.37L44.02 6.50Q44.02 4.54 44.46 3.07Q44.90 1.61 46.04 0.80Q47.18 0 49.25 0L49.25 0Q51.07 0 52.14 0.67Q53.21 1.34 53.68 2.59Q54.14 3.84 54.14 5.59L54.14 5.59L54.14 7.13L51.58 7.13L51.58 5.76Q51.58 4.68 51.47 3.85Q51.36 3.02 50.88 2.57Q50.40 2.11 49.27 2.11L49.27 2.11Q48.12 2.11 47.59 2.60Q47.06 3.10 46.91 4.00Q46.75 4.90 46.75 6.10L46.75 6.10L46.75 13.80Q46.75 15.26 46.99 16.12Q47.23 16.97 47.78 17.33Q48.34 17.69 49.27 17.69L49.27 17.69Q50.38 17.69 50.86 17.20Q51.34 16.70 51.46 15.84Q51.58 14.98 51.58 13.82L51.58 13.82L51.58 12.38L54.14 12.38L54.14 13.82Q54.14 15.60 53.71 16.96Q53.28 18.31 52.22 19.07Q51.17 19.82 49.25 19.82Z" transform="translate(51, 4.394)"></path></svg>