<?xml version="1.0" standalone="no"?>
<svg xmlns="http://www.w3.org/2000/svg" viewBox="0 0 97.224 29" width="97.224" height="29"><g fill="#850202" color="#850202" transform="translate(0, 0) scale(0.6041667)"><svg width="48.0" height="48.0" x="0.0" y="0.0" viewBox="0 0 48 48"><path fill="currentColor" fill-rule="evenodd" d="M21.088 35.003c-.108 0-.27 0-.432-.054-1.294-.27-1.294-1.403-1.348-2.212-.054-.862-.108-1.186-.54-1.887-.215-.324.054-.647.378-.647.054 0 .108 0 .216.054 1.402.7 3.344 1.887 3.29 3.182 0 .054-.216 1.564-1.564 1.564m-2.643-14.994c-.054.162-.162.27-.378.378a1.787 1.787 0 0 1-1.294 0c-.593-.27-1.133-.701-1.564-1.079-.701-.593-1.348-1.132-2.157-.97-.54.053-.971.377-1.349.97-.161.27-.27.594-.161.917.215.755 1.024 1.187 2.319 1.888 2.21 1.186 4.045 2.265 4.045 3.883v.431c0 .108-.054.162-.054.27 0 .054-.054.108-.054.162 0 .054-.054.108-.054.162-.054.107-.108.161-.216.27l-.162.161c-.431.324-1.024.485-1.564.485-.755 0-1.726-.323-1.887-1.294-.27-1.402-2.535-3.074-4.53-3.236-.972-.108-1.834.162-2.428.755l-.215.27c-.054.054-.108.162-.162.216-.054.107-.108.161-.162.27 0 .053-.054.053-.054.107-.054.054-.054.108-.108.216-.054 0-.054.054-.054.108-.054.054-.054.162-.054.215-.27 1.187 1.24 2.104 3.236 3.344 3.29 1.996 5.879 3.83 4.908 6.095-.216.485-.647.97-1.186 1.294a3.536 3.536 0 0 1-1.78.485c-1.24 0-2.265-.755-2.859-2.103-.593-1.348-1.294-2.05-2.103-2.05-.593 0-1.133.324-1.51.971-.162.378-.324.81-.324 1.295-1.833-3.236-2.912-7.011-2.912-10.949C1.618 11.596 11.649 1.564 24 1.564c1.672 0 3.344.162 4.962.54.593.162.809.54.917.863.161.539 0 1.186-.432 1.564-.377.377-.97.431-1.672.215-1.456-.431-2.912-.215-3.775.648-.593.593-.809 1.402-.54 2.157.216.647.918 1.726 3.29 2.157 1.834.324 3.183.216 4.854.108a54.109 54.109 0 0 1 3.29-.108c3.128 0 4.854 1.564 5.394 2.859.377.917.27 1.78-.324 2.373-1.186 1.186-4.207-.216-5.609-1.025-.162-.108-.27-.162-.431-.27-.378-.215-.863-.108-1.08.27-.215.378-.107.863.217 1.079.054.054.215.161.431.27 1.834 1.186 2.859 2.804 2.859 4.476 0 1.402-.755 2.642-2.05 3.451-1.025.594-1.941.648-2.643.054-.7-.593-.97-1.672-.593-2.696.378-1.133.216-2.212-.485-3.02-1.133-1.295-3.506-1.78-6.04-1.295-.162.054-.324.054-.432.108-.917.27-2.697.97-4.045 2.157-.485-1.618-2.157-2.642-3.506-3.397-.809-.486-1.887-1.133-1.887-1.51 0-.486.593-1.241 1.24-1.403.593-.162 1.133.216 1.618 1.025.755 1.348 2.157 2.265 3.398 2.157 1.025-.054 1.887-.647 2.373-1.726.377-.809.377-1.833.054-2.696-.27-.701-.917-1.618-2.427-2.212a.797.797 0 0 0-1.025.432.797.797 0 0 0 .432 1.025c.809.323 1.294.755 1.51 1.294.215.54.108 1.079 0 1.402-.216.54-.54.81-.971.81-.647.053-1.51-.54-1.942-1.349-1.186-2.103-2.804-1.942-3.397-1.78-1.349.324-2.481 1.672-2.481 2.966 0 1.295 1.294 2.05 2.642 2.859 1.996 1.186 3.236 2.05 2.75 3.613M23.947 0c1.834 0 3.614.216 5.34.594 1.078.215 1.833.97 2.103 1.995.27 1.079-.054 2.32-.863 3.128-.486.432-1.564 1.133-3.29.594-1.079-.324-1.834-.054-2.157.27-.108.107-.216.323-.162.539.108.377.701.862 2.05 1.078 1.671.27 2.912.216 4.476.108.97-.054 2.05-.108 3.397-.108 3.938 0 6.149 2.05 6.904 3.83.647 1.51.377 3.074-.647 4.098-1.025 1.025-2.481 1.079-3.884.755.54.917.81 1.888.81 2.913 0 1.995-1.025 3.775-2.859 4.854-1.564.97-3.236.97-4.476-.054-1.24-1.025-1.672-2.859-1.079-4.477.216-.593.108-1.078-.216-1.456-.72-.824-2.424-1.107-4.22-.802l-.256.047h-.054c-.054.054-.162.054-.216.108-1.186.54-2.48 3.236-2.373 6.256 0 1.672.432 5.77 4.369 7.227 1.78.701 3.505 1.025 5.123 1.025 2.75 0 5.07-.971 7.12-2.427 1.132-.755 2.21-1.726 3.235-2.697 2.178-2.333 3.708-4.966 4.014-6.891l.031-.228v-.054c0-.054.054-.108.054-.162 0 0 .03-.03.046-.068l.008-.04.108-.107.023-.023.085-.085s.054-.054.108-.054c.036 0 .072-.024.108-.04l.054-.014h.323c.054 0 .108.054.162.054 0 0 .03.03.068.045l.04.009.216.215s.053.054.053.108c0 .036.024.072.04.108l.014.054v.054c.216 1.348.324 2.157.324 3.667 0 12.868-10.202 23.41-23.07 23.881l-.39.012h-1.834c-1.618-.054-3.236-.27-4.746-.702-.122 0-.243-.03-.364-.068l-.122-.04h-.054c-.054 0-.108-.053-.162-.053C7.281 44.063 0 34.84 0 23.946 0 10.733 10.787-.054 23.946 0zm16.611 18.23c.378 0 .701.108 1.079.323 1.618 1.079 2.373 2.265 2.157 3.506 0 .108-.054.162-.054.216-.323.917-1.132 1.833-2.373 1.833-.27 0-.593-.054-.863-.161a2.387 2.387 0 0 1-1.51-1.618 3.42 3.42 0 0 1-.073-1.096l.02-.145v-.216c-.055 0-.055 0-.055-.054-.27-.539-.215-1.186.108-1.725.378-.54.917-.863 1.564-.863zm0 1.672c-.161 0-.27.161-.215.323.215.378.215.54.16 1.025-.053.431-.106 1.025.54 1.24a.687.687 0 0 0 .324.054c.594 0 .81-.7.81-.647.107-.701-.864-1.456-1.51-1.941 0-.054-.055-.054-.109-.054zM35.542 2.319c.754.108 3.073.378 3.667 2.104 0 .054.054.162.054.215.054.216.161 1.133-.432 1.942-.377.54-1.025.863-1.726.97h-.323c-.7 0-1.348-.269-1.834-.808-.323-.324-.485-.701-.593-.97v-.055c0-.054-.054-.108-.054-.108l-.054-.054c-.593-.431-.862-1.24-.647-1.995.216-.755.917-1.24 1.726-1.24zm-.162 1.564c-.216 0-.324.27-.216.378.378.27.485.431.648.809.161.377.376.863.97.863h.162c.868-.097.83-.84.812-.996l-.003-.029c-.216-.647-1.51-.917-2.373-1.025z"></path></svg></g><line x1="41" y1="1" x2="41" y2="28" stroke="#000000" stroke-linecap="round"></line><path fill="#000000" fill-rule="nonzero" d="M2.81 16.97L0.10 16.97Q0 16.97 0 16.85L0 16.85L0.05 0.36Q0.05 0.26 0.14 0.26L0.14 0.26L3.07 0.26Q3.17 0.26 3.24 0.36L3.24 0.36L5.42 3.53L7.61 0.36Q7.68 0.26 7.78 0.26L7.78 0.26L10.73 0.26Q10.82 0.26 10.82 0.36L10.82 0.36L10.87 16.85Q10.87 16.97 10.78 16.97L10.78 16.97L8.06 16.97Q7.97 16.97 7.97 16.85L7.97 16.85L7.94 4.61L5.42 8.26L2.93 4.61L2.90 16.85Q2.90 16.97 2.81 16.97L2.81 16.97ZM17.30 16.94L13.01 16.97Q12.89 16.97 12.89 16.85L12.89 16.85L12.94 0.36Q12.94 0.26 13.03 0.26L13.03 0.26L17.52 0.24Q18.84 0.22 19.93 0.86Q21.02 1.51 21.67 2.60Q22.32 3.70 22.32 5.02L22.32 5.02L22.32 11.90Q22.32 13.30 21.65 14.44Q20.98 15.58 19.85 16.25Q18.72 16.92 17.30 16.94L17.30 16.94ZM15.84 3.14L15.82 14.02L17.30 14.02Q18.19 14.02 18.80 13.39Q19.42 12.77 19.42 11.90L19.42 11.90L19.42 4.99Q19.42 4.22 18.85 3.66Q18.29 3.10 17.52 3.12L17.52 3.12L15.84 3.14ZM27.02 16.97L24.31 16.97Q24.22 16.97 24.22 16.85L24.22 16.85L24.26 0.36Q24.26 0.26 24.36 0.26L24.36 0.26L27.29 0.26Q27.38 0.26 27.46 0.36L27.46 0.36L29.64 3.53L31.82 0.36Q31.90 0.26 31.99 0.26L31.99 0.26L34.94 0.26Q35.04 0.26 35.04 0.36L35.04 0.36L35.09 16.85Q35.09 16.97 34.99 16.97L34.99 16.97L32.28 16.97Q32.18 16.97 32.18 16.85L32.18 16.85L32.16 4.61L29.64 8.26L27.14 4.61L27.12 16.85Q27.12 16.97 27.02 16.97L27.02 16.97ZM41.52 17.21L41.52 17.21Q40.20 17.21 39.13 16.55Q38.06 15.89 37.44 14.78Q36.82 13.68 36.82 12.31L36.82 12.31L36.84 4.82Q36.84 3.50 37.45 2.41Q38.06 1.32 39.13 0.66Q40.20 0 41.52 0L41.52 0Q42.84 0 43.90 0.65Q44.95 1.30 45.58 2.39Q46.20 3.48 46.20 4.82L46.20 4.82L46.20 5.93Q46.20 6.02 46.10 6.02L46.10 6.02L43.42 6.02Q43.32 6.02 43.32 5.93L43.32 5.93L43.32 4.82Q43.32 4.03 42.80 3.46Q42.29 2.88 41.52 2.88L41.52 2.88Q40.66 2.88 40.20 3.47Q39.74 4.06 39.74 4.82L39.74 4.82L39.74 12.31Q39.74 13.20 40.26 13.75Q40.78 14.30 41.52 14.30L41.52 14.30Q42.29 14.30 42.80 13.69Q43.32 13.08 43.32 12.31L43.32 12.31L43.32 11.21Q43.32 11.11 43.42 11.11L43.42 11.11L46.13 11.11Q46.22 11.11 46.22 11.21L46.22 11.21L46.22 12.31Q46.22 13.68 45.59 14.78Q44.95 15.89 43.90 16.55Q42.84 17.21 41.52 17.21Z" transform="translate(51, 6.016)"></path></svg>